name D:\PhD\Datasets\SharingData_IBEC_VALDUCE\RM2_Healthy_0001.mot
datacolumns 46
datarows 8
range 0.01000000 0.08000000
endheader
                time	         pelvis_tilt	     pelvis_rotation	           pelvis_tx	           pelvis_ty	           pelvis_tz	       hip_flexion_r	     hip_adduction_r	      hip_rotation_r	        knee_angle_r	       ankle_angle_r	    subtalar_angle_r	         mtp_angle_r	       hip_flexion_l	     hip_adduction_l	      hip_rotation_l	        knee_angle_l	       ankle_angle_l	    subtalar_angle_l	         mtp_angle_l	    lumbar_extension	      lumbar_bending	     lumbar_rotation	          arm_flex_r	           arm_add_r	           arm_rot_r	        elbow_flex_r	           pro_sup_r	        wrist_flex_r	         wrist_dev_r	          arm_flex_l	           arm_add_l	           arm_rot_l	        elbow_flex_l	           pro_sup_l	        wrist_flex_l	         wrist_dev_l	          end_eff_tx	          end_eff_ty	          end_eff_tz	             goal_tx	             goal_ty	             goal_tz	            elbow_tx	            elbow_ty	            elbow_tz	
          0.01000000	          0.00000000	          0.00000000	        330.24372423	        498.24799021	        380.11549384	          0.00000000	          0.00000000	          0.00000000	          0.00000000	          0.00000000	          0.00000000	          0.00000000	          0.00000000	          0.00000000	          0.00000000	          0.00000000	          0.00000000	          0.00000000	          0.00000000	         -3.44499922	          4.71507835	         -4.16227245	          4.80776405	        -32.15663910	         18.75850677	         58.31399155	        108.47741699	          0.00000000	          0.00000000	          0.00000000	          0.00000000	          0.00000000	          0.00000000	          0.00000000	          0.00000000	          0.00000000	        528.68389594	        134.83670307	        556.60319814	       1104.39114528	        673.36238068	        512.73553419	        178.41005504	        309.75075156	        692.53252518	
          0.02000000	          0.00000000	          0.00000000	        330.24723305	        498.28360963	        380.10953920	          0.00000000	          0.00000000	          0.00000000	          0.00000000	          0.00000000	          0.00000000	          0.00000000	          0.00000000	          0.00000000	          0.00000000	          0.00000000	          0.00000000	          0.00000000	          0.00000000	         -3.40294790	          4.71347475	         -4.17552471	          4.82554340	        -32.12777328	         18.78964806	         58.28084946	        108.52901459	          0.00000000	          0.00000000	          0.00000000	          0.00000000	          0.00000000	          0.00000000	          0.00000000	          0.00000000	          0.00000000	        528.72597616	        134.89793607	        556.38482462	       1104.40524990	        673.37566290	        512.73768181	        178.58950679	        309.68267028	        692.69207249	
          0.03000000	          0.00000000	          0.00000000	        330.25237191	        498.33095435	        380.11957455	          0.00000000	          0.00000000	          0.00000000	          0.00000000	          0.00000000	          0.00000000	          0.00000000	          0.00000000	          0.00000000	          0.00000000	          0.00000000	          0.00000000	          0.00000000	          0.00000000	         -3.39841366	          4.71345377	         -4.17816257	          4.89914131	        -32.20178223	         18.89777374	         58.31788254	        108.52662659	          0.00000000	          0.00000000	          0.00000000	          0.00000000	          0.00000000	          0.00000000	          0.00000000	          0.00000000	          0.00000000	        528.79272526	        134.94484196	        556.14486356	       1104.39413900	        673.35949855	        512.72615085	        178.83174785	        309.63415536	        692.87381528	
          0.04000000	          0.00000000	          0.00000000	        330.26347428	        498.35254897	        380.09436460	          0.00000000	          0.00000000	          0.00000000	          0.00000000	          0.00000000	          0.00000000	          0.00000000	          0.00000000	          0.00000000	          0.00000000	          0.00000000	          0.00000000	          0.00000000	          0.00000000	         -3.40525556	          4.70343351	         -4.20210123	          4.99829817	        -32.11274719	         19.03197479	         58.27982712	        108.64165497	          0.00000000	          0.00000000	          0.00000000	          0.00000000	          0.00000000	          0.00000000	          0.00000000	          0.00000000	          0.00000000	        529.12639049	        134.57167854	        555.82298665	       1104.39119424	        673.34780346	        512.73314828	        179.10615352	        309.58579478	        693.08676359	
          0.05000000	          0.00000000	          0.00000000	        330.21625145	        498.35578118	        380.12415226	          0.00000000	          0.00000000	          0.00000000	          0.00000000	          0.00000000	          0.00000000	          0.00000000	          0.00000000	          0.00000000	          0.00000000	          0.00000000	          0.00000000	          0.00000000	          0.00000000	         -3.41726279	          4.72778082	         -4.24063635	          5.15339947	        -32.18713379	         19.21940231	         58.27822876	        108.69450378	          0.00000000	          0.00000000	          0.00000000	          0.00000000	          0.00000000	          0.00000000	          0.00000000	          0.00000000	          0.00000000	        529.21579961	        134.63199414	        555.47577717	       1104.38668894	        673.34349268	        512.74082202	        179.46069076	        309.53544965	        693.27082693	
          0.06000000	          0.00000000	          0.00000000	        329.92994323	        498.18458956	        380.14294778	          0.00000000	          0.00000000	          0.00000000	          0.00000000	          0.00000000	          0.00000000	          0.00000000	          0.00000000	          0.00000000	          0.00000000	          0.00000000	          0.00000000	          0.00000000	          0.00000000	         -3.52836919	          4.94708014	         -4.50220537	          5.58457184	        -32.44880676	         19.74438858	         58.22407150	        107.96785736	          0.00000000	          0.00000000	          0.00000000	          0.00000000	          0.00000000	          0.00000000	          0.00000000	          0.00000000	          0.00000000	        529.54311717	        135.42809578	        555.13640464	       1104.41877915	        673.24964271	        512.73562576	        179.88817164	        309.47453991	        693.57987308	
          0.07000000	          0.00000000	          0.00000000	        329.88096676	        498.20935136	        380.18095248	          0.00000000	          0.00000000	          0.00000000	          0.00000000	          0.00000000	          0.00000000	          0.00000000	          0.00000000	          0.00000000	          0.00000000	          0.00000000	          0.00000000	          0.00000000	          0.00000000	         -3.55972338	          4.96164656	         -4.54890823	          5.76127100	        -32.51153564	         19.94763184	         58.23580551	        107.95081329	          0.00000000	          0.00000000	          0.00000000	          0.00000000	          0.00000000	          0.00000000	          0.00000000	          0.00000000	          0.00000000	        529.73850978	        135.53693438	        554.77187547	       1104.42148321	        673.26744674	        512.73185136	        180.27544314	        309.53538723	        693.85599844	
          0.08000000	          0.00000000	          0.00000000	        329.81970919	        498.20053454	        380.23665971	          0.00000000	          0.00000000	          0.00000000	          0.00000000	          0.00000000	          0.00000000	          0.00000000	          0.00000000	          0.00000000	          0.00000000	          0.00000000	          0.00000000	          0.00000000	          0.00000000	         -3.52433109	          4.97705221	         -4.57606363	          5.86679220	        -32.55378342	         20.13477898	         58.21447372	        109.17919159	          0.00000000	          0.00000000	          0.00000000	          0.00000000	          0.00000000	          0.00000000	          0.00000000	          0.00000000	          0.00000000	        529.85838165	        134.63943415	        554.65814164	       1104.48163780	        673.28108946	        512.78846508	        180.65190145	        309.53126718	        694.04960257	
